# File created by Blade
# Date/Time:  Fri Jan 16 19:18:48 2015
#---------------------------------------------------------
:version 1.10
:name HOM
:units
  mass 1.0
  length 1.000000
  angle deg
:documentation
     Acclaim Skeleton File
:root
   axis xyz
   order TX TY TZ RX RY RZ
   position 0.000000 0.000000 0.000000
   orientation 0 0 0
:bonedata
   begin
      id 1
      name Spine_dum
      direction 0.000000 1.000000 0.000000
      length 7.067664
      axis 0.0 0.0 0.0 xyz
   end
   begin
      id 2
      name LeftUpLeg_dum
      direction 1.000000 0.000000 0.000000
      length 4.013002
      axis 0.0 0.0 0.0 xyz
   end
   begin
      id 3
      name RightUpLeg_dum
      direction -1.000000 0.000000 0.000000
      length 4.013002
      axis 0.0 0.0 0.0 xyz
   end
   begin
      id 4
      name Spine
      direction 0.000000 1.000000 0.000000
      length 0.000000
      axis 0.0 0.0 0.0 xyz
      dof rx ry rz
   end
   begin
      id 5
      name Spine_dum1
      direction 0.000000 1.000000 0.000000
      length 15.039886
      axis 0.0 0.0 0.0 xyz
   end
   begin
      id 6
      name Spine_dum2
      direction 0.000000 1.000000 0.000000
      length 10.530368
      axis 0.0 0.0 0.0 xyz
   end
   begin
      id 7
      name Spine_dum3
      direction 0.000000 1.000000 0.000000
      length 10.530368
      axis 0.0 0.0 0.0 xyz
   end
   begin
      id 8
      name Head
      direction 0.000000 1.000000 0.000000
      length 4.527550
      axis 0.0 0.0 0.0 xyz
      dof rx ry rz
   end
   begin
      id 9
      name LeftShoulder
      direction 1.000000 0.000000 0.000000
      length 7.028855
      axis 0.0 0.0 -90.0 xyz
      dof rx ry rz
   end
   begin
      id 10
      name LeftArm
      direction 1.000000 0.000000 0.000000
      length 10.797705
      axis 0.0 0.0 -90.0 xyz
      dof rx ry rz
   end
   begin
      id 11
      name LeftForeArm
      direction 1.000000 0.000000 0.000000
      length 7.907442
      axis 0.0 0.0 -90.0 xyz
      dof ry rz rx
   end
   begin
      id 12
      name LeftHand
      direction 0.000000 0.000000 0.000000
      length 0.000000
      axis 0.0 0.0 -90.0 xyz
      dof rx ry rz
   end
   begin
      id 13
      name LeftHand_dum1
      direction 0.000000 0.000000 0.000000
      length 0.000000
      axis 0.0 0.0 -90.0 xyz
   end
   begin
      id 14
      name LeftHand_dum2
      direction 1.000000 0.000000 0.000000
      length 3.937000
      axis 0.0 0.0 -90.0 xyz
   end
   begin
      id 15
      name LeftHandThumb1
      direction 0.000000 0.000000 1.000000
      length 3.937000
      axis 0.0 0.0 -90.0 xyz
      dof rx rz ry
   end
   begin
      id 16
      name RightShoulder
      direction -1.000000 0.000000 0.000000
      length 7.028855
      axis 0.0 0.0 90.0 xyz
      dof rx ry rz
   end
   begin
      id 17
      name RightArm
      direction -1.000000 0.000000 0.000000
      length 10.797705
      axis 0.0 0.0 90.0 xyz
      dof rx ry rz
   end
   begin
      id 18
      name RightForeArm
      direction -1.000000 0.000000 0.000000
      length 7.907442
      axis 0.0 0.0 90.0 xyz
      dof ry rz rx
   end
   begin
      id 19
      name RightHand
      direction 0.000000 0.000000 0.000000
      length 0.000000
      axis 0.0 0.0 90.0 xyz
      dof rx ry rz
   end
   begin
      id 20
      name RightHand_dum1
      direction 0.000000 0.000000 0.000000
      length 0.000000
      axis 0.0 0.0 90.0 xyz
   end
   begin
      id 21
      name RightHand_dum2
      direction -1.000000 0.000000 0.000000
      length 3.937000
      axis 0.0 0.0 90.0 xyz
   end
   begin
      id 22
      name RightHandThumb1
      direction 0.000000 0.000000 1.000000
      length 3.937000
      axis 0.0 0.0 90.0 xyz
      dof rx rz ry
   end
   begin
      id 23
      name LeftUpLeg
      direction 0.000000 -1.000000 0.000000
      length 16.899758
      axis 0.0 0.0 0.0 xyz
      dof rx ry rz
   end
   begin
      id 24
      name LeftLeg
      direction 0.000000 -1.000000 0.000000
      length 17.389183
      axis 0.0 0.0 0.0 xyz
      dof rx ry rz
   end
   begin
      id 25
      name LeftFoot
      direction 0.000000 -0.258819 0.965926
      length 4.924528
      axis 15.0 0.0 0.0 xyz
      dof rx ry rz
   end
   begin
      id 26
      name LeftToeBase
      direction 0.000000 0.000000 1.000000
      length 2.952750
      axis 0.0 0.0 0.0 xyz
      dof rx ry rz
   end
   begin
      id 27
      name RightUpLeg
      direction 0.000000 -1.000000 0.000000
      length 16.899758
      axis 0.0 0.0 0.0 xyz
      dof rx ry rz
   end
   begin
      id 28
      name RightLeg
      direction 0.000000 -1.000000 0.000000
      length 17.389183
      axis 0.0 0.0 0.0 xyz
      dof rx ry rz
   end
   begin
      id 29
      name RightFoot
      direction 0.000000 -0.258819 0.965926
      length 4.924528
      axis 15.0 0.0 0.0 xyz
      dof rx ry rz
   end
   begin
      id 30
      name RightToeBase
      direction 0.000000 0.000000 1.000000
      length 2.952750
      axis 0.0 0.0 0.0 xyz
      dof rx ry rz
   end
:hierarchy
   begin
      root Spine_dum LeftUpLeg_dum RightUpLeg_dum
      Spine_dum Spine
      LeftUpLeg_dum LeftUpLeg
      RightUpLeg_dum RightUpLeg
      Spine Spine_dum1 Spine_dum2 Spine_dum3
      Spine_dum1 Head
      Spine_dum2 LeftShoulder
      Spine_dum3 RightShoulder
      LeftShoulder LeftArm
      LeftArm LeftForeArm
      LeftForeArm LeftHand
      LeftHand LeftHand_dum1 LeftHand_dum2
      LeftHand_dum1 LeftHandThumb1
      RightShoulder RightArm
      RightArm RightForeArm
      RightForeArm RightHand
      RightHand RightHand_dum1 RightHand_dum2
      RightHand_dum1 RightHandThumb1
      LeftUpLeg LeftLeg
      LeftLeg LeftFoot
      LeftFoot LeftToeBase
      RightUpLeg RightLeg
      RightLeg RightFoot
      RightFoot RightToeBase
   end

# File created by Blade
# Date/Time:  Fri Jan 16 19:18:57 2015
# Frame Rate: 120.000 fps
#------------------------------------------------------
:FULLY-SPECIFIED
:DEGREES
104
root 19.837114 35.597993 -22.450908 -171.874517 0.156881 -179.612768
Spine -20.852382 0.701874 0.204508
Head 11.746838 0.616129 -0.616618
LeftShoulder -9.093949 -36.649882 22.246274
LeftArm 8.155643 -11.148875 -3.990859
LeftForeArm -25.898261 -0.000000 -3.614566
LeftHand -9.502009 -0.000000 -6.593564
LeftHandThumb1 -26.253704 0.000000 33.147579
RightShoulder -7.810557 0.954247 -18.165871
RightArm 2.897902 57.486654 -1.105175
RightForeArm -7.130090 -0.000000 4.294060
RightHand -3.512307 -0.000000 2.161163
RightHandThumb1 -24.326973 -0.000000 -32.862282
LeftUpLeg 1.107538 9.638108 -0.392846
LeftLeg -6.333330 -0.000000 0.000000
LeftFoot -20.572881 26.208028 -15.011146
LeftToeBase 25.233968 -0.000000 -0.000000
RightUpLeg -0.059556 -4.551623 -0.379080
RightLeg -2.585664 -0.000000 0.000000
RightFoot -21.999551 -25.245402 16.113394
RightToeBase 23.665861 -0.000000 -0.000000
105
root 19.837185 35.600440 -22.455321 -171.899074 0.124257 -179.623349
Spine -20.884276 0.703910 0.208766
Head 11.838504 0.621776 -0.721771
LeftShoulder -8.988242 -37.219224 22.590755
LeftArm 8.496291 -11.883220 -3.939461
LeftForeArm -27.534912 -0.000000 -3.425912
LeftHand -9.510673 0.000000 -6.455731
LeftHandThumb1 -26.253704 0.000000 33.147579
RightShoulder -7.624854 1.776938 -18.795992
RightArm 2.925301 57.807108 -1.553197
RightForeArm -5.367746 -0.000000 4.736384
RightHand -3.577773 -0.000000 1.316117
RightHandThumb1 -24.326973 -0.000000 -32.862282
LeftUpLeg 1.135319 9.614199 -0.394160
LeftLeg -6.334612 -0.000000 0.000000
LeftFoot -20.584933 26.183226 -15.080945
LeftToeBase 25.264745 -0.000000 -0.000000
RightUpLeg -0.029117 -4.562913 -0.387551
RightLeg -2.578416 -0.000000 0.000000
RightFoot -21.998620 -25.166746 16.253700
RightToeBase 23.500994 -0.000000 -0.000000
106
root 19.836136 35.602605 -22.460699 -171.935215 0.089442 -179.634023
Spine -20.899231 0.692597 0.223742
Head 11.918945 0.665063 -0.818768
LeftShoulder -8.879650 -37.806739 22.902798
LeftArm 8.861624 -12.524299 -3.834034
LeftForeArm -29.324346 -0.000000 -3.212509
LeftHand -9.591098 -0.000000 -6.235958
LeftHandThumb1 -26.253704 0.000000 33.147579
RightShoulder -7.462027 2.197060 -19.274388
RightArm 3.078264 58.510631 -2.086192
RightForeArm -3.506116 -0.000000 5.136791
RightHand -3.283204 -0.000000 0.654299
RightHandThumb1 -24.326973 -0.000000 -32.862282
LeftUpLeg 1.169045 9.600680 -0.395042
LeftLeg -6.318162 -0.000000 0.000000
LeftFoot -20.587695 26.148606 -15.120142
LeftToeBase 25.262198 -0.000000 -0.000000
RightUpLeg 0.018934 -4.563781 -0.397895
RightLeg -2.575129 -0.000000 0.000000
RightFoot -22.020051 -25.232961 16.304671
RightToeBase 23.423455 -0.000000 -0.000000
107
root 19.835096 35.605102 -22.466142 -171.974361 0.063365 -179.646023
Spine -20.916579 0.716459 0.220349
Head 12.014777 0.654853 -0.918333
LeftShoulder -8.836010 -38.238810 23.281121
LeftArm 9.349273 -13.398877 -3.902833
LeftForeArm -31.090530 0.000000 -3.058878
LeftHand -9.501019 -0.000000 -6.208587
LeftHandThumb1 -26.253704 0.000000 33.147579
RightShoulder -7.219275 2.874632 -19.865501
RightArm 3.010587 58.988526 -2.677913
RightForeArm -1.597477 -0.000000 5.616680
RightHand -3.235100 -0.000000 -0.165073
RightHandThumb1 -24.326973 -0.000000 -32.862282
LeftUpLeg 1.211065 9.590409 -0.398901
LeftLeg -6.315171 -0.000000 0.000000
LeftFoot -20.568348 26.131284 -15.168794
LeftToeBase 25.224202 -0.000000 -0.000000
RightUpLeg 0.067997 -4.562772 -0.410516
RightLeg -2.571272 -0.000000 0.000000
RightFoot -22.033361 -25.218320 16.339895
RightToeBase 23.482821 -0.000000 -0.000000
108
root 19.834744 35.607713 -22.470971 -171.993180 0.024459 -179.659032
Spine -20.957703 0.729213 0.219974
Head 12.109150 0.605536 -1.048627
LeftShoulder -8.630623 -38.918495 23.567387
LeftArm 9.639898 -14.067737 -3.802996
LeftForeArm -32.846373 -0.000000 -2.698677
LeftHand -9.604141 -0.000000 -6.123649
LeftHandThumb1 -26.253704 0.000000 33.147579
RightShoulder -7.063653 3.364580 -20.386559
RightArm 3.221592 59.847026 -3.110848
RightForeArm 0.068484 -0.000000 6.116109
RightHand -3.071245 -0.000000 -0.802034
RightHandThumb1 -24.326973 -0.000000 -32.862282
LeftUpLeg 1.228039 9.562553 -0.404029
LeftLeg -6.306357 -0.000000 0.000000
LeftFoot -20.571171 26.106275 -15.226579
LeftToeBase 25.227029 -0.000000 -0.000000
RightUpLeg 0.098672 -4.583873 -0.422910
RightLeg -2.569519 -0.000000 0.000000
RightFoot -22.036018 -25.189257 16.478024
RightToeBase 23.281691 -0.000000 -0.000000
109
root 19.834075 35.609512 -22.475468 -172.023605 0.009492 -179.679035
Spine -20.983935 0.752479 0.208241
Head 12.198335 0.582376 -1.155699
LeftShoulder -8.542145 -39.291608 23.878404
LeftArm 10.208329 -14.886478 -3.838912
LeftForeArm -34.439730 -0.000000 -2.527224
LeftHand -9.510291 0.000000 -6.215843
LeftHandThumb1 -26.253704 0.000000 33.147579
RightShoulder -6.843579 3.975098 -20.944261
RightArm 3.354095 60.790133 -3.490956
RightForeArm 1.578288 0.000000 6.795451
RightHand -3.404473 -0.000000 -1.257041
RightHandThumb1 -24.326973 -0.000000 -32.862282
LeftUpLeg 1.260115 9.562238 -0.417462
LeftLeg -6.300840 -0.000000 0.000000
LeftFoot -20.556447 26.077064 -15.294681
LeftToeBase 25.132908 -0.000000 -0.000000
RightUpLeg 0.136022 -4.564604 -0.443274
RightLeg -2.560068 -0.000000 0.000000
RightFoot -22.078351 -25.317071 16.360783
RightToeBase 23.568624 -0.000000 -0.000000
